<svg id="Capa_1" enable-background="new 0 0 512 512" height="512" viewBox="0 0 512 512" width="512" xmlns="http://www.w3.org/2000/svg"><g><path d="m504.5 147v268c0 22.09-17.91 40-40 40h-417c-22.09 0-40-17.91-40-40v-268z" fill="#f5f5f5"/><g fill="#50758d"><path d="m455.309 221.904h-143c-4.143 0-7.5-3.357-7.5-7.5s3.357-7.5 7.5-7.5h143c4.143 0 7.5 3.357 7.5 7.5s-3.358 7.5-7.5 7.5z"/><path d="m455.309 261.904h-143c-4.143 0-7.5-3.357-7.5-7.5s3.357-7.5 7.5-7.5h143c4.143 0 7.5 3.357 7.5 7.5s-3.358 7.5-7.5 7.5z"/><path d="m455.309 301.904h-143c-4.143 0-7.5-3.357-7.5-7.5s3.357-7.5 7.5-7.5h143c4.143 0 7.5 3.357 7.5 7.5s-3.358 7.5-7.5 7.5z"/></g><path d="m334 410.904h-156c-15.464 0-28-12.536-28-28 0-15.464 12.536-28 28-28h156c15.464 0 28 12.536 28 28 0 15.464-12.536 28-28 28z" fill="#93ddb7"/><path d="m226.31 227.9v53c0 16.57-13.43 30-30 30h-110c-3.44 0-6.74-.58-9.81-1.65-11.75-4.05-20.19-15.22-20.19-28.35v-53c0-16.56 13.43-30 30-30h110c16.57 0 30 13.44 30 30z" fill="#2edffc"/><path d="m182.36 310.9h-96.05c-3.44 0-6.74-.58-9.81-1.65l51.81-84.35z" fill="#50758d"/><path d="m222.69 295.19c-4.35 9.28-11.87 11.97-11.87 11.97s-3.15 1.62-5.67 2.42c-.28.09-.55.16-.8.23-3.83.98-6.37 1.09-6.37 1.09h-17.85l-22.09-38.69 13.84-15.57 18.43-20.74 36 43s.89 6.7-3.62 16.29z" fill="#50758d"/><path d="m504.5 167v-20l-248.5-10-248.5 10v20 248c0 22.09 17.91 40 40 40h20c-22.09 0-40-17.91-40-40v-248z" fill="#e6e6e6"/><path d="m205.15 309.58c-.28.09-.55.16-.8.23-3.83.98-6.37 1.09-6.37 1.09h-17.85l-22.09-38.69 13.84-15.57z" fill="#2b597f"/><path d="m504.5 97v50h-497v-50c0-22.09 17.91-40 40-40h417c22.09 0 40 17.91 40 40z" fill="#50758d"/><g fill="#2b597f"><path d="m482 102c0-12.406-10.093-22.5-22.5-22.5h-213c-6.385 0-12.152 2.677-16.251 6.963-4.767 4.757-2.529 2.519-7.286 7.286-4.286 4.099-6.963 9.866-6.963 16.251 0 12.406 10.093 22.5 22.5 22.5h213c6.385 0 12.152-2.677 16.251-6.963 4.767-4.757 2.529-2.519 7.286-7.286 4.286-4.099 6.963-9.866 6.963-16.251z"/><path d="m75.75 101.75c0-12.406-10.093-22.5-22.5-22.5-6.385 0-12.152 2.677-16.251 6.963-4.767 4.757-2.529 2.519-7.286 7.286-4.286 4.099-6.963 9.866-6.963 16.251 0 12.406 10.093 22.5 22.5 22.5 6.385 0 12.152-2.677 16.251-6.963 4.767-4.757 2.529-2.519 7.286-7.286 4.286-4.099 6.963-9.866 6.963-16.251z"/><path d="m140 101.75c0-12.406-10.093-22.5-22.5-22.5-6.385 0-12.152 2.677-16.251 6.963-4.767 4.757-2.529 2.519-7.286 7.286-4.286 4.099-6.963 9.866-6.963 16.251 0 12.406 10.093 22.5 22.5 22.5 6.385 0 12.152-2.677 16.251-6.963 4.767-4.757 2.529-2.519 7.286-7.286 4.286-4.099 6.963-9.866 6.963-16.251z"/><path d="m204 101.75c0-12.406-10.093-22.5-22.5-22.5-6.385 0-12.152 2.677-16.251 6.963-4.767 4.757-2.529 2.519-7.286 7.286-4.286 4.099-6.963 9.866-6.963 16.251 0 12.406 10.093 22.5 22.5 22.5 6.385 0 12.152-2.677 16.251-6.963 4.767-4.757 2.529-2.519 7.286-7.286 4.286-4.099 6.963-9.866 6.963-16.251z"/></g><path d="m53.25 124.25c-12.407 0-22.5-10.094-22.5-22.5s10.093-22.5 22.5-22.5 22.5 10.094 22.5 22.5-10.093 22.5-22.5 22.5z" fill="#fd646f"/><path d="m117.5 124.5c-12.407 0-22.5-10.094-22.5-22.5s10.093-22.5 22.5-22.5 22.5 10.094 22.5 22.5-10.093 22.5-22.5 22.5z" fill="#ffc682"/><path d="m181.5 124.5c-12.407 0-22.5-10.094-22.5-22.5s10.093-22.5 22.5-22.5 22.5 10.094 22.5 22.5-10.093 22.5-22.5 22.5z" fill="#93ddb7"/><path d="m459.5 124.5h-213c-12.407 0-22.5-10.094-22.5-22.5s10.093-22.5 22.5-22.5h213c12.407 0 22.5 10.094 22.5 22.5s-10.093 22.5-22.5 22.5z" fill="#f5f5f5"/></g><g><path d="m425.361 447.5h-377.861c-17.921 0-32.5-14.579-32.5-32.5v-260.5h331c4.143 0 7.5-3.357 7.5-7.5s-3.357-7.5-7.5-7.5h-331v-42.5c0-17.921 14.579-32.5 32.5-32.5h33.309c4.143 0 7.5-3.357 7.5-7.5s-3.357-7.5-7.5-7.5h-33.309c-26.191 0-47.5 21.309-47.5 47.5v318c0 26.191 21.309 47.5 47.5 47.5h377.861c4.143 0 7.5-3.357 7.5-7.5s-3.357-7.5-7.5-7.5z"/><path d="m464.5 49.5h-348.691c-4.143 0-7.5 3.357-7.5 7.5s3.357 7.5 7.5 7.5h348.691c17.921 0 32.5 14.579 32.5 32.5v42.5h-116c-4.143 0-7.5 3.357-7.5 7.5s3.357 7.5 7.5 7.5h116v260.5c0 17.921-14.579 32.5-32.5 32.5h-4.691c-4.143 0-7.5 3.357-7.5 7.5s3.357 7.5 7.5 7.5h4.691c26.191 0 47.5-21.309 47.5-47.5v-318c0-26.191-21.309-47.5-47.5-47.5z"/><path d="m30.75 101.75c0 12.406 10.094 22.5 22.5 22.5s22.5-10.094 22.5-22.5-10.094-22.5-22.5-22.5-22.5 10.094-22.5 22.5zm30 0c0 4.136-3.364 7.5-7.5 7.5s-7.5-3.364-7.5-7.5 3.364-7.5 7.5-7.5 7.5 3.364 7.5 7.5z"/><path d="m117.5 124.5c12.406 0 22.5-10.094 22.5-22.5s-10.094-22.5-22.5-22.5-22.5 10.094-22.5 22.5 10.094 22.5 22.5 22.5zm0-30c4.136 0 7.5 3.364 7.5 7.5s-3.364 7.5-7.5 7.5-7.5-3.364-7.5-7.5 3.364-7.5 7.5-7.5z"/><path d="m204 102c0-12.406-10.094-22.5-22.5-22.5s-22.5 10.094-22.5 22.5 10.094 22.5 22.5 22.5 22.5-10.094 22.5-22.5zm-30 0c0-4.136 3.364-7.5 7.5-7.5s7.5 3.364 7.5 7.5-3.364 7.5-7.5 7.5-7.5-3.364-7.5-7.5z"/><path d="m459.5 124.5c12.406 0 22.5-10.094 22.5-22.5s-10.094-22.5-22.5-22.5h-213c-12.406 0-22.5 10.094-22.5 22.5s10.094 22.5 22.5 22.5zm-220.5-22.5c0-4.136 3.364-7.5 7.5-7.5h213c4.136 0 7.5 3.364 7.5 7.5s-3.364 7.5-7.5 7.5h-213c-4.136 0-7.5-3.364-7.5-7.5z"/><path d="m455.309 206.904h-143c-4.143 0-7.5 3.357-7.5 7.5s3.357 7.5 7.5 7.5h143c4.143 0 7.5-3.357 7.5-7.5s-3.358-7.5-7.5-7.5z"/><path d="m455.309 246.904h-143c-4.143 0-7.5 3.357-7.5 7.5s3.357 7.5 7.5 7.5h143c4.143 0 7.5-3.357 7.5-7.5s-3.358-7.5-7.5-7.5z"/><path d="m462.809 294.404c0-4.143-3.357-7.5-7.5-7.5h-143c-4.143 0-7.5 3.357-7.5 7.5s3.357 7.5 7.5 7.5h143c4.142 0 7.5-3.357 7.5-7.5z"/><path d="m178 418.404h156c19.575 0 35.5-15.925 35.5-35.5s-15.925-35.5-35.5-35.5h-156c-19.575 0-35.5 15.925-35.5 35.5s15.925 35.5 35.5 35.5zm0-56h156c11.304 0 20.5 9.196 20.5 20.5s-9.196 20.5-20.5 20.5h-156c-11.304 0-20.5-9.196-20.5-20.5s9.196-20.5 20.5-20.5z"/><path d="m196.309 190.404h-110c-20.678 0-37.5 16.822-37.5 37.5v53c0 20.678 16.822 37.5 37.5 37.5h110c20.678 0 37.5-16.822 37.5-37.5v-2.054c0-.001 0-.003 0-.005v-50.94c0-20.678-16.823-37.501-37.5-37.501zm-110.123 112.997 13.231-20.337c2.259-3.472 1.275-8.117-2.197-10.377-3.472-2.258-8.118-1.275-10.377 2.197l-15.074 23.17c-4.865-4.13-7.96-10.285-7.96-17.151v-53c0-12.406 10.094-22.5 22.5-22.5h110c12.406 0 22.5 10.094 22.5 22.5v30.358l-22.749-27.171c-1.4-1.673-3.459-2.652-5.64-2.685-2.161-.073-4.269.887-5.717 2.517l-25.478 28.662-24.587-38.701c-1.368-2.154-3.737-3.465-6.289-3.479-.014 0-.027 0-.041 0-2.536 0-4.902 1.282-6.286 3.41l-16.06 24.686c-2.26 3.472-1.276 8.117 2.196 10.376 3.471 2.26 8.118 1.275 10.376-2.196l9.699-14.907 41.061 64.632h-82.985c-.041-.001-.082-.004-.123-.004zm110.123.003h-9.245l-19.474-30.653 22.548-25.366 28.652 34.224c-.373 12.08-10.311 21.795-22.481 21.795z"/></g></svg>