<svg id="Layer_1" height="512" viewBox="0 0 512 512" width="512" xmlns="http://www.w3.org/2000/svg" data-name="Layer 1"><path d="m398.91 279.5h62.92v180h-62.92z" fill="#fb6771"/><path d="m398.91 229.95h62.92v49.55h-62.92z" fill="#49bdff"/><path d="m292.91 199.95h62.92v69.55h-62.92z" fill="#49bdff"/><path d="m292.91 269.5h62.92v190h-62.92z" fill="#fb6771"/><path d="m54.26 459.5h434.221v30h-434.221z" fill="#b0b5ca"/><path d="m186.91 289.95h62.92v39.55h-62.92z" fill="#49bdff"/><path d="m186.91 329.5h62.92v130h-62.92z" fill="#fb6771"/><path d="m80.91 369.5h62.92v90h-62.92z" fill="#fb6771"/><path d="m80.91 319.95h62.92v49.55h-62.92z" fill="#49bdff"/><path d="m338.62 59.41v99.19l-73.81-1.18v-98.01a36.9 36.9 0 0 1 36.74-36.91h.16a36.908 36.908 0 0 1 36.91 36.91z" fill="#b0b5ca"/><path d="m130.11 22.5a36.741 36.741 0 0 0 -36.74 36.74v205.32h171.44v-205.15a36.9 36.9 0 0 1 36.74-36.91z" fill="#d4e1f4"/><path d="m165.65 88.61a16.44 16.44 0 1 1 0 32.88h-5.73a148.957 148.957 0 0 0 0-32.88z" fill="#ffdb00"/><path d="m70.63 131.76v67.62l-29.38-16.32v-51.66h29.38z" fill="#6d7486"/><path d="m41.25 131.4h-.6a17.131 17.131 0 0 1 -17.13-17.13v-18.43a17.131 17.131 0 0 1 17.13-17.13h30.41v52.69z" fill="#ffdb00"/><path d="m398.91 279.5h26v180h-26z" fill="#ffa9b1"/><path d="m398.91 229.95h26v49.55h-26z" fill="#9ce1ff"/><path d="m292.91 199.95h26v69.55h-26z" fill="#9ce1ff"/><path d="m292.91 269.5h26v190h-26z" fill="#ffa9b1"/><path d="m186.91 289.95h26v39.55h-26z" fill="#9ce1ff"/><path d="m186.91 329.5h26v130h-26z" fill="#ffa9b1"/><path d="m80.91 369.5h26v90h-26z" fill="#ffa9b1"/><path d="m80.91 319.95h26v49.55h-26z" fill="#9ce1ff"/><path d="m156.11 22.5h-26a36.741 36.741 0 0 0 -36.74 36.74v205.32h26v-205.32a36.741 36.741 0 0 1 36.74-36.74z" fill="#adc0d8"/><path d="m159.92 88.61a149.235 149.235 0 0 0 -9.27-37.82l-79.59 27.92v52.69l79.59 27.91a148.916 148.916 0 0 0 9.27-37.82 148.957 148.957 0 0 0 0-32.88z" fill="#fb6771"/><g fill="#284268"><path d="m488.48 453.5h-20.65v-223.55a6 6 0 0 0 -6-6h-62.92a6 6 0 0 0 -6 6v223.55h-31.08v-253.55a6 6 0 0 0 -6-6h-62.92a6 6 0 0 0 -6 6v253.55h-31.08v-163.55a6 6 0 0 0 -6-6h-62.92a6 6 0 0 0 -6 6v163.55h-31.08v-133.55a6 6 0 0 0 -6-6h-62.92a6 6 0 0 0 -6 6v133.55h-20.65a6 6 0 0 0 -6 6v30a6 6 0 0 0 6 6h434.22a6 6 0 0 0 6-6v-30a6 6 0 0 0 -6-6zm-83.57-217.55h50.92v37.55h-50.92zm0 49.55h50.92v168h-50.92zm-106-79.55h50.92v57.55h-50.92zm0 69.55h50.92v178h-50.92zm-106 20.45h50.92v27.55h-50.92zm0 39.55h50.92v118h-50.92zm-106-9.55h50.92v37.55h-50.92zm0 49.55h50.92v78h-50.92zm395.57 108h-422.22v-18h422.22z"/><path d="m70.63 205.38a6 6 0 0 0 6-6v-59.669l10.74 3.766v121.083a6 6 0 0 0 6 6h171.44a6 6 0 0 0 6-6v-101.044l67.714 1.083h.1a6 6 0 0 0 6-6v-99.189a42.906 42.906 0 0 0 -42.914-42.91h-171.6a42.788 42.788 0 0 0 -42.74 42.74v7.39l-17.332 6.08h-29.388a23.156 23.156 0 0 0 -23.13 23.13v18.43a23.167 23.167 0 0 0 17.73 22.487v46.3a6 6 0 0 0 3.087 5.245l29.38 16.32a5.989 5.989 0 0 0 2.913.758zm28.74-146.14a30.775 30.775 0 0 1 30.74-30.74h141.913a42.793 42.793 0 0 0 -13.213 30.91v22.95a6 6 0 1 0 12 0v-22.95a30.964 30.964 0 0 1 30.74-30.91h.16a30.909 30.909 0 0 1 30.91 30.91v93.09l-61.81-.988v-38.47a6 6 0 0 0 -12 0v145.518h-159.44v-110.875l49.295 17.287a5.992 5.992 0 0 0 7.576-3.485 155.008 155.008 0 0 0 8.957-34h.452a22.44 22.44 0 0 0 0-44.88h-.45a155.375 155.375 0 0 0 -8.956-33.995 6 6 0 0 0 -7.578-3.487l-49.296 17.295zm67.1 35.411a10.43 10.43 0 0 1 0 20.8c.232-3.454.363-6.931.363-10.4s-.133-6.951-.366-10.4zm-89.41-11.688 69.991-24.552a143.2 143.2 0 0 1 6.906 30.865 142.945 142.945 0 0 1 0 31.548v.012a143.064 143.064 0 0 1 -6.9 30.854l-69.997-24.545zm-12.43 106.221-17.38-9.655v-42.129h17.38zm.43-63.784h-24.41a11.143 11.143 0 0 1 -11.13-11.13v-18.43a11.143 11.143 0 0 1 11.13-11.13h24.41z"/><path d="m222.3 107.43h13.26a6 6 0 0 0 0-12h-13.26a6 6 0 0 0 0 12z"/><path d="m222.3 66.66h13.26a6 6 0 0 0 0-12h-13.26a6 6 0 0 0 0 12z"/><path d="m222.3 148.2h13.26a6 6 0 0 0 0-12h-13.26a6 6 0 0 0 0 12z"/><path d="m222.3 188.96h13.26a6 6 0 0 0 0-12h-13.26a6 6 0 0 0 0 12z"/><path d="m114.25 182.96a6 6 0 0 0 6 6h73.7a6 6 0 0 0 0-12h-73.7a6 6 0 0 0 -6 6z"/><path d="m222.3 229.73h13.26a6 6 0 0 0 0-12h-13.26a6 6 0 0 0 0 12z"/><path d="m193.95 217.73h-73.7a6 6 0 0 0 0 12h73.7a6 6 0 0 0 0-12z"/><path d="m314.24 84.21a6 6 0 0 0 6-6v-5.34a6 6 0 0 0 -12 0v5.34a6 6 0 0 0 6 6z"/><path d="m314.24 143.71a6 6 0 0 0 6-6v-40.35a6 6 0 0 0 -12 0v40.35a6 6 0 0 0 6 6z"/></g></svg>