<?xml version="1.0" encoding="iso-8859-1"?>
<!-- Generator: Adobe Illustrator 19.0.0, SVG Export Plug-In . SVG Version: 6.00 Build 0)  -->
<svg version="1.1" id="Capa_1" xmlns="http://www.w3.org/2000/svg" xmlns:xlink="http://www.w3.org/1999/xlink" x="0px" y="0px"
	 viewBox="0 0 512 512" style="enable-background:new 0 0 512 512;fill:#CCC" xml:space="preserve">
<g>
	<g>
		<path d="M473.6,0H38.4C17.229,0,0,17.229,0,38.4v435.2C0,494.771,17.229,512,38.4,512h435.2c21.171,0,38.4-17.229,38.4-38.4V38.4
			C512,17.229,494.771,0,473.6,0z M494.933,473.6c0,11.767-9.566,21.333-21.333,21.333H38.4c-11.759,0-21.333-9.566-21.333-21.333
			V38.4c0-11.768,9.574-21.333,21.333-21.333h435.2c11.759,0,21.333,9.566,21.333,21.333V473.6z"/>
	</g>
</g>
<g>
	<g>
		<path d="M76.8,34.133H42.667c-4.71,0-8.533,3.814-8.533,8.533V76.8c0,4.719,3.823,8.533,8.533,8.533H76.8
			c4.71,0,8.533-3.814,8.533-8.533V42.667C85.333,37.948,81.51,34.133,76.8,34.133z M68.267,68.267H51.2V51.2h17.067V68.267z"/>
	</g>
</g>
<g>
	<g>
		<path d="M145.067,34.133h-34.133c-4.71,0-8.533,3.814-8.533,8.533V76.8c0,4.719,3.823,8.533,8.533,8.533h34.133
			c4.71,0,8.533-3.814,8.533-8.533V42.667C153.6,37.948,149.777,34.133,145.067,34.133z M136.533,68.267h-17.067V51.2h17.067V68.267
			z"/>
	</g>
</g>
<g>
	<g>
		<path d="M213.333,34.133H179.2c-4.71,0-8.533,3.814-8.533,8.533V76.8c0,4.719,3.823,8.533,8.533,8.533h34.133
			c4.71,0,8.533-3.814,8.533-8.533V42.667C221.867,37.948,218.044,34.133,213.333,34.133z M204.8,68.267h-17.067V51.2H204.8V68.267z
			"/>
	</g>
</g>
<g>
	<g>
		<path d="M473.6,0H38.4C17.229,0,0,17.229,0,38.4v72.533c0,4.719,3.823,8.533,8.533,8.533h494.933c4.71,0,8.533-3.814,8.533-8.533
			V38.4C512,17.229,494.771,0,473.6,0z M494.933,102.4H17.067v-64c0-11.768,9.574-21.333,21.333-21.333h435.2
			c11.759,0,21.333,9.566,21.333,21.333V102.4z"/>
	</g>
</g>
<g>
	<g>
		<path d="M395.034,307.2H116.966c-17.442,0-31.633,14.191-31.633,31.633v164.634c0,4.719,3.823,8.533,8.533,8.533h324.267
			c4.71,0,8.533-3.814,8.533-8.533V338.833C426.667,321.391,412.476,307.2,395.034,307.2z M409.6,494.933H102.4v-156.1
			c0-8.03,6.536-14.566,14.566-14.566h278.067c8.03,0,14.566,6.537,14.566,14.566V494.933z"/>
	</g>
</g>
<g>
	<g>
		<path d="M315.733,230.4H196.267c-14.114,0-25.6,11.486-25.6,25.6s11.486,25.6,25.6,25.6h119.467c14.114,0,25.6-11.486,25.6-25.6
			S329.847,230.4,315.733,230.4z M315.733,264.533H196.267c-4.71,0-8.533-3.823-8.533-8.533s3.823-8.533,8.533-8.533h119.467
			c4.71,0,8.533,3.823,8.533,8.533S320.444,264.533,315.733,264.533z"/>
	</g>
</g>
<g>
	<g>
		<path d="M341.333,153.6H170.667c-4.71,0-8.533,3.814-8.533,8.533s3.823,8.533,8.533,8.533h170.667c4.71,0,8.533-3.814,8.533-8.533
			S346.044,153.6,341.333,153.6z"/>
	</g>
</g>
<g>
	<g>
		<path d="M384,187.733H128c-4.71,0-8.533,3.814-8.533,8.533S123.29,204.8,128,204.8h256c4.71,0,8.533-3.814,8.533-8.533
			S388.71,187.733,384,187.733z"/>
	</g>
</g>
<g>
	<g>
		<path d="M384,341.333H128c-4.71,0-8.533,3.814-8.533,8.533v153.6c0,4.719,3.823,8.533,8.533,8.533h256
			c4.71,0,8.533-3.814,8.533-8.533v-153.6C392.533,345.148,388.71,341.333,384,341.333z M375.467,494.933H136.533V358.4h238.933
			V494.933z"/>
	</g>
</g>
<g>
	<g>
		<path d="M227.9,412.1c-3.328-3.337-8.738-3.337-12.066,0l-42.667,42.667c-3.337,3.337-3.337,8.73,0,12.066
			c1.664,1.664,3.849,2.5,6.033,2.5c2.185,0,4.369-0.836,6.033-2.5l42.667-42.667C231.236,420.83,231.236,415.437,227.9,412.1z"/>
	</g>
</g>
<g>
	<g>
		<path d="M270.566,454.767L227.9,412.1c-3.328-3.337-8.738-3.337-12.066,0c-3.337,3.337-3.337,8.73,0,12.066l42.667,42.667
			c1.664,1.664,3.849,2.5,6.033,2.5c2.185,0,4.369-0.836,6.033-2.5C273.903,463.497,273.903,458.103,270.566,454.767z"/>
	</g>
</g>
<g>
	<g>
		<path d="M296.166,395.034c-3.328-3.337-8.738-3.337-12.066,0L241.434,437.7c-3.337,3.337-3.337,8.73,0,12.066
			c1.664,1.664,3.849,2.5,6.033,2.5c2.185,0,4.369-0.836,6.033-2.5l42.667-42.667C299.503,403.763,299.503,398.37,296.166,395.034z"
			/>
	</g>
</g>
<g>
	<g>
		<path d="M338.833,437.7l-42.667-42.667c-3.328-3.337-8.738-3.337-12.066,0c-3.337,3.337-3.337,8.73,0,12.066l42.667,42.667
			c1.664,1.664,3.849,2.5,6.033,2.5c2.185,0,4.369-0.836,6.033-2.5C342.17,446.43,342.17,441.037,338.833,437.7z"/>
	</g>
</g>
<g>
</g>
<g>
</g>
<g>
</g>
<g>
</g>
<g>
</g>
<g>
</g>
<g>
</g>
<g>
</g>
<g>
</g>
<g>
</g>
<g>
</g>
<g>
</g>
<g>
</g>
<g>
</g>
<g>
</g>
</svg>
