<svg id="FilledOutline" height="512" viewBox="0 0 512 512" width="512" xmlns="http://www.w3.org/2000/svg"><path d="m56 136h400v320h-400z" fill="#c9c9c7"/><path d="m88 168h336v240h-336z" fill="#0093b9"/><path d="m104 184h304v208h-304z" fill="#2da4c4"/><path d="m224 176h248v-144h-168l-80 80z" fill="#85bb40"/><path d="m48 488a24 24 0 0 1 -24-24v-24h160l16 16h112l16-16h160v24a24 24 0 0 1 -24 24z" fill="#e3e4e2"/><path d="m264 271.8a56 56 0 1 1 56 56 56 56 0 0 1 -56-56z" fill="#eb5849"/><path d="m320 271.8v-56a56 56 0 0 1 39.6 95.6z" fill="#0093b9"/><path d="m264 271.8a56 56 0 0 1 56-56v112a56 56 0 0 1 -56-56z" fill="#f6bc1b"/><path d="m240 184a24 24 0 0 0 24-24 24 24 0 0 0 -24-24z" fill="#e89080"/><path d="m48 136v-47.12a64.88 64.88 0 0 1 64.88-64.88h62.24a64.88 64.88 0 0 1 64.88 64.88v103.12a88 88 0 0 1 -88 88h-16a88 88 0 0 1 -88-88v-8a24 24 0 0 1 -24-24 24 24 0 0 1 24-24z" fill="#f6c8a7"/><path d="m240 128h-16a48.031 48.031 0 0 1 -48-48 48.072 48.072 0 0 1 -48 48h-8v-32a32 32 0 0 1 -32 32h-40v-39.12a64.88 64.88 0 0 1 64.88-64.88h62.24a64.88 64.88 0 0 1 64.88 64.88z" fill="#4e4e4f"/><path d="m40 190.987v1.013a96.108 96.108 0 0 0 96 96h16a96.108 96.108 0 0 0 96-96v-1.013a32 32 0 0 0 0-61.974v-40.133a72.961 72.961 0 0 0 -72.88-72.88h-62.24a72.961 72.961 0 0 0 -72.88 72.88v40.133a32 32 0 0 0 0 61.974zm216-30.987a16 16 0 0 1 -8 13.835v-27.67a16 16 0 0 1 8 13.835zm-143.12-128h62.24a56.945 56.945 0 0 1 56.88 56.88v31.12h-8a39.5 39.5 0 0 1 -29.8-13.339 39.9 39.9 0 0 1 -10.2-26.661 8 8 0 0 0 -16 0 40.073 40.073 0 0 1 -40 40v-24a8 8 0 0 0 -16 0 24.028 24.028 0 0 1 -24 24h-32v-31.12a56.945 56.945 0 0 1 56.88-56.88zm-64.88 112a8 8 0 0 0 8-8h32a39.792 39.792 0 0 0 24-8.019v.019a8 8 0 0 0 8 8h8a56.487 56.487 0 0 0 48.018-27.132 56.114 56.114 0 0 0 47.982 27.132h8v56a80.091 80.091 0 0 1 -80 80h-16a80.091 80.091 0 0 1 -80-80v-8a8 8 0 0 0 -8-8 16 16 0 0 1 0-32z"/><path d="m307.313 40h156.687v128h-176v16h184a8 8 0 0 0 8-8v-144a8 8 0 0 0 -8-8h-168a8 8 0 0 0 -5.657 2.343l-40 40 11.314 11.314z"/><path d="m304 64h16v16h-16z"/><path d="m336 64h104v16h-104z"/><path d="m288 96h152v16h-152z"/><path d="m288 128h136v16h-136z"/><path d="m152 216h8a16.021 16.021 0 0 0 16-16v-32h40a8 8 0 0 0 0-16h-40a16.021 16.021 0 0 0 -16 16v32h-8a8 8 0 0 0 0 16z"/><path d="m104 168h32a8 8 0 0 0 0-16h-32a8 8 0 0 0 0 16z"/><path d="m152 240h-16a8 8 0 0 0 0 16h16a8 8 0 0 0 0-16z"/><circle cx="120" cy="184" r="8"/><circle cx="200" cy="184" r="8"/><path d="m80 296v112a8 8 0 0 0 8 8h336a8 8 0 0 0 8-8v-200h-16v192h-320v-104z"/><path d="m488 432h-24v-224h-16v224h-120a8 8 0 0 0 -5.657 2.343l-13.656 13.657h-105.374l-13.656-13.657a8 8 0 0 0 -5.657-2.343h-120v-152h-16v152h-24a8 8 0 0 0 -8 8v24a32.036 32.036 0 0 0 32 32h416a32.036 32.036 0 0 0 32-32v-24a8 8 0 0 0 -8-8zm-8 32a16.019 16.019 0 0 1 -16 16h-416a16.019 16.019 0 0 1 -16-16v-16h148.687l13.656 13.657a8 8 0 0 0 5.657 2.343h112a8 8 0 0 0 5.657-2.343l13.656-13.657h148.687z"/><path d="m136 336v24h-16v16h112v-16h-16v-56h-16v56h-16v-40h-16v40h-16v-24z"/><path d="m320 208a64 64 0 1 0 64 64 64.072 64.072 0 0 0 -64-64zm8 83.314 19.788 19.786a47.741 47.741 0 0 1 -19.788 8.221zm-56-19.314a48.069 48.069 0 0 1 40-47.321v94.642a48.069 48.069 0 0 1 -40-47.321zm87.1 27.788-31.1-31.1v-44.009a47.949 47.949 0 0 1 31.1 75.109z"/><path d="m256 360h16v16h-16z"/><path d="m288 360h104v16h-104z"/></svg>