<svg id="Layer_1_1_" enable-background="new 0 0 64 64" height="512" viewBox="0 0 64 64" width="512" xmlns="http://www.w3.org/2000/svg"><path d="m12 13c-3.482 1.161-5.649 4.631-5.164 8.269l1.164 8.731h8l1.49-4.433 1.004-3.871c.284-3.999-2.381-7.782-6.494-8.696z" fill="#fff"/><path d="m57.164 21.269c.485-3.638-1.682-7.108-5.164-8.269-4.113.914-6.778 4.697-6.494 8.696l.343 3.099 3.411-6.564c2.083 1.295 2.692 4.05 1.348 6.102l-2.983 4.554.375 1.113h8z" fill="#fff"/><path d="m48 30 6 20.667 3 10.333h4l-5-31z" fill="#3449a3"/><path d="m49 61h4l1-10.333-6-20.667z" fill="#2a3b85"/><path d="m42 8h-4v3h-10v5h9l5 4z" fill="#3449a3"/><path d="m3 61h4l9-31h-8z" fill="#d64528"/><path d="m16.046 24.904 1.439.677.005-.014-.005.014 10.089 4.748c.663.312 1.426-.172 1.426-.905v-.858c0-.351-.184-.677-.486-.857l-14.514-8.709c-1.097 2.194-.173 4.86 2.046 5.904z" fill="#ffe5cf"/><path d="m17 8c0-.77-.188-1.49-.499-2.142l-9.291 3.498c.594 2.098 2.502 3.644 4.79 3.644 2.761 0 5-2.239 5-5z" fill="#ffe5cf"/><path d="m12 3c-2.761 0-5 2.239-5 5 0 .473.087.922.21 1.356l9.291-3.498c-.804-1.685-2.509-2.858-4.501-2.858z" fill="#633f0e"/><path d="m49.261 18.232-3.411 6.564-4.395 8.455c-.162.312-.149.685.035.985l.449.731c.384.625 1.287.638 1.688.024l3.998-6.104-.017-.052.017.052 2.983-4.554c1.345-2.051.736-4.807-1.347-6.101z" fill="#ffe5cf"/><path d="m57 8-9.693-1.669c-.187.524-.307 1.08-.307 1.669 0 2.761 2.239 5 5 5s5-2.239 5-5z" fill="#ffe5cf"/><path d="m52 3c-2.173 0-4.004 1.395-4.693 3.331l9.693 1.669c0-2.761-2.239-5-5-5z" fill="#3449a3"/><path d="m38 8v-5h-16v12l4-4h2 10z" fill="#d64528"/><path d="m10.162 50.108.838 10.892h4l1-31z" fill="#ba3c23"/><g fill="#fff"><path d="m25 5h6v1h-6z"/><path d="m31 13h6v1h-6z"/></g></svg>