<svg id="Layer_3" enable-background="new 0 0 64 64" height="512" viewBox="0 0 64 64" width="512" xmlns="http://www.w3.org/2000/svg"><g><path d="m14 16h-2c-2.209 0-4-1.791-4-4v-6c0-2.209 1.791-4 4-4h2c2.209 0 4 1.791 4 4v6c0 2.209-1.791 4-4 4z" fill="#efbe9a"/><path d="m8 6c0-2.209 1.791-4 4-4h2c2.209 0 4 1.791 4 4h-6v3c0 1.105-.895 2-2 2h-2z" fill="#976947"/><path d="m38 10v3l-4-3h-4c-1.105 0-2-.895-2-2v-4c0-1.105.895-2 2-2h10c1.105 0 2 .895 2 2v4c0 1.105-.895 2-2 2z" fill="#669e4f"/><path d="m26 24v3l4-3h4c1.105 0 2-.895 2-2v-4c0-1.105-.895-2-2-2h-10c-1.105 0-2 .895-2 2v4c0 1.105.895 2 2 2z" fill="#2b74ca"/><path d="m7 46-2 16h2l4-16" fill="#976947"/><path d="m18 46 2 16h-2l-4-16" fill="#976947"/><path d="m19 42c1.105 0 2 .895 2 2 0 1.105-.895 2-2 2h-14l-3-24h3l3 18" fill="#674025"/><path d="m30 58h-6v4h8v-2c0-1.105-.895-2-2-2z" fill="#8892a0"/><path d="m24 58v-16h-14c-1.105 0-2-.895-2-2v-2h18c1.105 0 2 .895 2 2v18" fill="#4d5d7a"/><path d="m18 38v-14c0-2.209-1.791-4-4-4h-6v18" fill="#2b74ca"/><path d="m18 38h-7v-12c0-1.105.895-2 2-2 1.105 0 2 .895 2 2v8h7c1.105 0 2 .895 2 2v2" fill="#efbe9a"/><path d="m11 33h4v-7c0-1.105-.895-2-2-2-1.105 0-2 .895-2 2z" fill="#3d98f7"/><g><path d="m31 5h2v2h-2z" fill="#fff"/></g><g><path d="m34 5h2v2h-2z" fill="#fff"/></g><g><path d="m37 5h2v2h-2z" fill="#fff"/></g><g><path d="m31 19h2v2h-2z" fill="#fff"/></g><g><path d="m28 19h2v2h-2z" fill="#fff"/></g><g><path d="m25 19h2v2h-2z" fill="#fff"/></g><path d="m50 16h2c2.209 0 4-1.791 4-4v-6c0-2.209-1.791-4-4-4h-2c-2.209 0-4 1.791-4 4v6c0 2.209 1.791 4 4 4z" fill="#efbe9a"/><g fill="#976947"><path d="m56 6c0-2.209-1.791-4-4-4h-2c-2.209 0-4 1.791-4 4h6v3c0 1.105.895 2 2 2h2z"/><path d="m57 46 2 16h-2l-4-16"/><path d="m46 46-2 16h2l4-16"/></g><path d="m45 42c-1.105 0-2 .895-2 2 0 1.105.895 2 2 2h14l3-24h-3l-3 18" fill="#674025"/><path d="m34 58h6v4h-8v-2c0-1.105.895-2 2-2z" fill="#8892a0"/><path d="m40 58v-16h14c1.105 0 2-.895 2-2v-2h-18c-1.105 0-2 .895-2 2v18" fill="#4d5d7a"/><path d="m46 38v-14c0-2.209 1.791-4 4-4h6v18" fill="#669e4f"/><path d="m46 38h7v-12c0-1.105-.895-2-2-2-1.105 0-2 .895-2 2v8h-7c-1.105 0-2 .895-2 2v2" fill="#efbe9a"/><path d="m53 33h-4v-7c0-1.105.895-2 2-2 1.105 0 2 .895 2 2z" fill="#78b75b"/></g></svg>