<svg id="Capa_1" enable-background="new 0 0 512 512" height="512" viewBox="0 0 512 512" width="512" xmlns="http://www.w3.org/2000/svg"><g><path d="m156.042 23.613h-145.74c-5.69 0-10.302 4.613-10.302 10.302v145.74c0 5.69 4.612 10.302 10.302 10.302h44.112l19.724 35.993c3.91 7.135 14.158 7.135 18.068 0l19.725-35.993h44.111c5.69 0 10.302-4.612 10.302-10.302v-145.74c0-5.689-4.612-10.302-10.302-10.302z" fill="#fe9738"/><g fill="#fe7701"><path d="m69.889 218.196 4.249 7.754c3.91 7.135 14.158 7.135 18.068 0l19.725-35.993h-26.567z"/><path d="m156.042 23.613h-26.567c5.69 0 10.302 4.612 10.302 10.302v145.74c0 5.69-4.612 10.302-10.302 10.302h26.567c5.69 0 10.302-4.612 10.302-10.302v-145.74c0-5.689-4.612-10.302-10.302-10.302z"/></g><path d="m486.953 23.613h-145.74c-5.69 0-10.302 4.612-10.302 10.302v145.74c0 5.69 4.612 10.302 10.302 10.302h44.112l19.724 35.993c3.91 7.135 14.158 7.135 18.068 0l19.725-35.993h44.111c5.69 0 10.302-4.612 10.302-10.302v-145.74c-.001-5.689-4.613-10.302-10.302-10.302z" fill="#0ed2b3"/><g fill="#01998d"><path d="m400.799 218.196 4.249 7.754c3.91 7.135 14.159 7.135 18.068 0l19.725-35.993h-26.567z"/><path d="m486.953 23.613h-26.567c5.69 0 10.302 4.612 10.302 10.302v145.74c0 5.69-4.612 10.302-10.302 10.302h26.567c5.69 0 10.302-4.612 10.302-10.302v-145.74c-.001-5.689-4.613-10.302-10.302-10.302z"/></g><path d="m94.099 106.785 26.69-26.69c3.018-3.017 3.018-7.909 0-10.927-3.017-3.017-7.909-3.017-10.927 0l-26.69 26.69-26.69-26.69c-3.017-3.017-7.909-3.017-10.927 0s-3.018 7.909 0 10.927l26.69 26.69-26.69 26.69c-3.018 3.017-3.018 7.909 0 10.927 1.509 1.509 3.486 2.263 5.463 2.263s3.955-.755 5.463-2.263l26.69-26.69 26.69 26.69c1.509 1.509 3.486 2.263 5.463 2.263s3.955-.755 5.463-2.263c3.018-3.017 3.018-7.909 0-10.927z" fill="#f5f8f9"/><path d="m403.885 139.653c-1.977 0-3.955-.755-5.464-2.263l-32.499-32.498c-3.017-3.017-3.017-7.909 0-10.927 3.018-3.017 7.909-3.017 10.928 0l27.035 27.035 47.43-47.431c3.018-3.017 7.909-3.017 10.928 0 3.017 3.017 3.017 7.909 0 10.927l-52.893 52.894c-1.51 1.508-3.488 2.263-5.465 2.263z" fill="#f5f8f9"/><ellipse cx="454.074" cy="424.218" fill="#c365af" rx="57.926" ry="57.926" transform="matrix(.707 -.707 .707 .707 -166.972 445.329)"/><circle cx="103.922" cy="430.46" fill="#c365af" r="57.926"/><g fill="#596c76"><path d="m256 85.815c-4.267 0-7.726-3.459-7.726-7.726v-16.264c0-4.267 3.459-7.726 7.726-7.726 4.268 0 7.726 3.459 7.726 7.726v16.264c0 4.267-3.458 7.726-7.726 7.726z"/><path d="m256 147.83c-4.267 0-7.726-3.459-7.726-7.726v-16.264c0-4.267 3.459-7.726 7.726-7.726 4.268 0 7.726 3.459 7.726 7.726v16.264c0 4.267-3.458 7.726-7.726 7.726z"/><path d="m256 209.844c-4.267 0-7.726-3.459-7.726-7.726v-16.264c0-4.267 3.459-7.726 7.726-7.726 4.268 0 7.726 3.459 7.726 7.726v16.264c0 4.267-3.458 7.726-7.726 7.726z"/><path d="m256 271.858c-4.267 0-7.726-3.459-7.726-7.726v-16.264c0-4.267 3.459-7.726 7.726-7.726 4.268 0 7.726 3.459 7.726 7.726v16.264c0 4.267-3.458 7.726-7.726 7.726z"/><path d="m256 333.873c-4.267 0-7.726-3.459-7.726-7.726v-16.264c0-4.267 3.459-7.726 7.726-7.726 4.268 0 7.726 3.459 7.726 7.726v16.264c0 4.266-3.458 7.726-7.726 7.726z"/><path d="m256 395.887c-4.267 0-7.726-3.459-7.726-7.726v-16.264c0-4.267 3.459-7.726 7.726-7.726 4.268 0 7.726 3.459 7.726 7.726v16.264c0 4.267-3.458 7.726-7.726 7.726z"/><path d="m256 457.901c-4.267 0-7.726-3.459-7.726-7.726v-16.264c0-4.267 3.459-7.726 7.726-7.726 4.268 0 7.726 3.459 7.726 7.726v16.264c0 4.267-3.458 7.726-7.726 7.726z"/></g><path d="m4.496 430.46h41.573l39.474-18.379-5.11-34.497-26.224-59.034z" fill="#01c0fa"/><path d="m354.648 324.792v99.426h41.657l38.462-19.307 19.307-38.327v-41.792z" fill="#01c0fa"/><g fill="#fedf30"><path d="m80.406 377.524c-20.27 9.018-34.411 29.32-34.411 52.937h57.926z"/><path d="m454.074 366.292c-31.992 0-57.926 25.935-57.926 57.926h57.926z"/></g></g></svg>